<?xml version="1.0"?>

<svg version="1.1" id="Layer_1" xmlns="http://www.w3.org/2000/svg" xmlns:xlink="http://www.w3.org/1999/xlink" x="0px" y="0px" viewBox="0 0 748.9 216.7" style="enable-background:new 0 0 748.9 216.7;" xml:space="preserve">

<g>
&#x9;<path class="st0" d="M146.8,65v-3.6h-38V65h1.4c8.6,0,12.6,4,12.6,11.6c0,4.8-1.6,11.2-4.6,18.9l-1.4,3.6l-14.6,37.2L75.2,65h15.3&#xA;&#x9;&#x9;v-3.6H45.1V65h11.8l36.2,94.4h3.5L121.8,96c8.3-20.8,14.5-31.1,24.4-31.1H146.8z"></path>
&#x9;<path class="st0" d="M229.9,105.1c0.1-1.2,0.1-2.4,0.1-3.6c0-21.8-11.9-42.8-37.4-42.8c-25,0-47.2,21.4-47.2,51&#xA;&#x9;&#x9;c0,30.2,23.3,50.9,47.5,50.9c16.1,0,29.9-9.1,37-20.8l-2.6-2C221,148.1,210,156,196.6,156c-22.1,0-32.7-19-32-50.9H229.9z&#xA;&#x9;&#x9; M189.7,62.2c15,0,21,17.7,21,35.8c0,1.2-0.1,2.4-0.1,3.6h-45.8C166,80,174.4,62.2,189.7,62.2z"></path>
&#x9;<path class="st0" d="M284.9,99.4c-16.5-5.8-27.7-10.5-27.7-21.6c0-9,8.1-15.6,19.5-15.6c15.7,0,29.5,12.7,32.1,29.5l3.5-0.1&#xA;&#x9;&#x9;l-1.7-32.9h-2.7c-1.4,4.5-4.6,8-9.3,8.4c-3.7-3.5-11.4-8.4-22-8.4c-14.5,0-28.3,9-28.3,26.9c0,16.5,11.6,24.9,29.7,31.1&#xA;&#x9;&#x9;c17.5,6,27.8,9.8,27.8,22.2c0,11-8.6,18.2-21.7,18.2c-19.7,0-32.7-18-34.6-32.3l-3.5,0.2l1.9,34.3h2.7c1.5-4.7,4.6-7.6,8.9-9&#xA;&#x9;&#x9;c5.4,5,13.7,10.3,25,10.3c17.9,0,31.9-12.3,31.9-30.8C316.5,110.8,301.5,105.2,284.9,99.4z"></path>
&#x9;<path class="st0" d="M382.7,156c-22.5,0-32.1-21-32.1-46.3c0-25.1,9.2-47.1,31.5-47.1c16,0,27.4,10.6,27.6,19.9&#xA;&#x9;&#x9;c-1.3-4.4-5.3-7.3-9.8-7.3c-5.4,0-9.7,4.5-9.7,10.2c0,5.9,4.7,10.4,11,10.4c6.7,0,11.7-4.9,11.7-12.9c0-13.5-14.8-24.1-33.1-24.1&#xA;&#x9;&#x9;c-23.9,0-48.3,18.9-48.3,50.7c0,31.9,24.8,51.2,48,51.2c15.6,0,29.5-9,36.3-20.4l-2.6-2C407,148.3,396,156,382.7,156z"></path>
&#x9;<path class="st0" d="M684.6,125.9c-6.3,0-11,4.5-11,10.4c0,5.7,4.3,10.2,9.7,10.2c4.5,0,8.6-2.9,9.8-7.3c-0.1,2.5-0.9,5.1-2.5,7.6&#xA;&#x9;&#x9;l2.8,1.9c-1,1.6-2.2,3.1-3.5,4.5l0,0c4-4,6.3-8.9,6.3-14.2C696.3,130.8,691.3,125.9,684.6,125.9z"></path>
&#x9;<path class="st0" d="M690.7,146.6L690.7,146.6c-2.4,3.8-7.4,9-13.8,9c-6,0-10.5-4-10.5-15.8V65h25.7v-3.6h-25.7V30&#xA;&#x9;&#x9;c-3.5,5.5-11.3,11.9-17.4,13.8v17.6h-15.4V65H649v64.6c0,17,4.7,31.1,22.8,31.1c8.2,0,14-3.3,18.1-7.7c1.3-1.4,2.5-2.9,3.5-4.5&#xA;&#x9;&#x9;L690.7,146.6z"></path>
&#x9;<path class="st0" d="M558.2,103.3V90.8c-5,6.1-11.2,13.7-17.5,21.3v42.3h-17v3.6h50.3v-3.6h-15.9V103.3z"></path>
&#x9;<path class="st0" d="M618.4,93.1c0-22.1-10-34.3-27.8-34.3c-12.4,0-20.4,6.2-25.7,13.9c-0.9,1.1-3.3,4-6.7,8.1V58.4&#xA;&#x9;&#x9;c-10.4,2.3-20.3,3-34.4,3V65h17v36.9c-15.2,18.3-32.1,38.6-33.8,40.4c-7.2,7.5-16.2,13.8-27.7,13.8c-22.1,0-32.7-19-32-50.9h65.3&#xA;&#x9;&#x9;c0.1-1.2,0.1-2.4,0.1-3.6c0-21.8-11.9-42.8-37.4-42.8c-25,0-47.2,21.4-47.2,51c0,30.2,23.3,50.9,47.5,50.9&#xA;&#x9;&#x9;c13.9,0,25.8-6.9,33.7-16.1c0.8-1,16.4-19.5,31.4-37.5v0c1.2-1.5,2.4-2.9,3.6-4.3c6.2-7.5,12.1-14.6,16.3-19.7&#xA;&#x9;&#x9;c3.5-4.2,6.1-7.5,7.3-9.1c4.2-5.7,10-9.7,17.4-9.7c9.3,0,15.6,6.5,15.6,21.7v68.3h-15.7v3.6h50.1v-3.6h-17V93.1z M472.4,62.2&#xA;&#x9;&#x9;c15,0,21,17.7,21,35.8c0,1.2-0.1,2.4-0.1,3.6h-45.8C448.8,80,457.1,62.2,472.4,62.2z"></path>
</g>
</svg>