<?xml version="1.0"?>
<svg id="Layer_1" data-name="Layer 1" xmlns="http://www.w3.org/2000/svg" viewBox="0 0 451.83 468.32">
  <defs>
    
  </defs>
  <path class="cls-1" d="m451.83,164.36c-1.13-3.37-2.25-6.73-3.38-10.1-43.81,6.23-87.61,12.46-143.32,20.38,24.59-50,44.22-89.91,63.85-129.82-3.18-2.04-6.37-4.09-9.55-6.13-31.4,30.95-62.8,61.9-103.39,101.93-9.65-55.44-17.06-98.03-24.47-140.62-3.76.42-7.52.83-11.29,1.25-7.68,42.08-15.37,84.16-25.22,138.11-40.54-39.58-71.72-70.01-102.9-100.45-3.17,2.56-6.34,5.12-9.51,7.68,19.68,39.1,39.36,78.2,63.64,126.44-54.82-7.16-96.91-12.65-139-18.15-1.03,3.78-2.07,7.55-3.1,11.33,37.71,20.09,75.42,40.18,123.6,65.84-50.42,26.8-89.12,47.37-127.82,67.94,1.09,3.42,2.18,6.83,3.27,10.25,44.21-6.26,88.43-12.51,143.63-20.32-24.86,51-43.48,89.2-62.1,127.4,3.11,2.15,6.22,4.3,9.33,6.45,31.09-30.26,62.18-60.51,102.27-99.53,9.89,57.68,17.29,100.87,24.7,144.07,3.66-.14,7.33-.28,10.99-.41,7.13-43.42,14.26-86.83,23.47-142.91,41.29,39.92,73.64,71.19,105.98,102.46,2.7-2.09,5.4-4.18,8.1-6.27-19.81-40.4-39.61-80.8-64.52-131.6,56.53,7.91,99.2,13.88,141.87,19.85,1.18-3.44,2.37-6.88,3.55-10.31-38.43-20.96-76.85-41.93-125.12-68.25,48.95-25.76,87.68-46.13,126.41-66.51Z"></path>
</svg>